#!OML:ASF I:\salsa\salsa 7_09\Patient 1\Session 1\dancerfemale.ASF
:FULLY-SPECIFIED
:DEGREES
1170
root 6.62161 15.7508 -2.41042 248.293 -101.211 118.79
lowerback 4.27915 6.41909 6.74921
upperback -7.6337 9.29768 1.92042
thorax -9.80866 4.02848 -2.76774
lowerneck 5.43408 -11.8371 -11.7585
upperneck 0.840458 -16.6428 11.6174
head 1.33625 -8.47952 5.1136
rclavicle 2.86747e-014 3.97569e-015
rhumerus -24.5449 -2.26265 -88.0511
rradius 107.494
rwrist 4.03675
rhand -1.87823 45.4071
rfingers 7.12502
rthumb 23.7902 16.8599
lclavicle 2.86747e-014 3.97569e-015
lhumerus -81.7969 19.3148 18.8475
lradius 39.3094
lwrist -41.2179
lhand -4.07011 46.0545
lfingers 7.12502
lthumb 21.6866 -645.14
rfemur -25.8605 -9.3683 35.3808
rtibia 27.1021
rfoot -19.9943 -28.8054
rtoes 8.19829
lfemur -11.1528 -1.18547 -8.22912
ltibia 61.6526
lfoot -9.33877 0.597231
ltoes -31.6896
1171
root 6.89019 15.7313 -2.39794 246.067 -100.768 120.682
lowerback 4.32331 6.64041 5.84956
upperback -7.61677 9.52502 1.92465
thorax -9.93416 4.20619 -2.31906
lowerneck 5.71785 -11.825 -12.4605
upperneck 1.02857 -16.7399 12.2779
head 1.47283 -8.54606 5.40819
rclavicle 8.38747e-014 1.55052e-014
rhumerus -23.7804 -3.53736 -88.6487
rradius 106.967
rwrist 4.22038
rhand -2.47288 45.591
rfingers 7.12502
rthumb 23.2198 16.9708
lclavicle 8.38747e-014 1.55052e-014
lhumerus -80.6876 19.3407 17.2
lradius 40.427
lwrist -40.3017
lhand -4.87837 45.9054
lfingers 7.12502
lthumb 20.9103 -645.202
rfemur -26.9987 -9.74477 34.8027
rtibia 27.7732
rfoot -19.4523 -28.5427
rtoes 7.77056
lfemur -7.01098 -1.70972 -9.25658
ltibia 56.8434
lfoot -8.99404 -0.791336
ltoes -33.409
1172
root 7.16945 15.7182 -2.38126 241.769 -99.5065 124.499
lowerback 4.65022 6.84781 4.11089
upperback -7.50637 9.66735 1.76528
thorax -10.2415 4.39816 -1.62755
lowerneck 5.86673 -11.9235 -12.4576
upperneck 1.25399 -16.8931 11.9078
head 1.502 -8.62365 5.29352
rclavicle -1.62755e-014 -1.31198e-014
rhumerus -23.1487 -4.48313 -89.2413
rradius 106.362
rwrist 4.52741
rhand -3.0106 45.3347
rfingers 7.12502
rthumb 22.7038 16.6503
lclavicle -1.62755e-014 -1.31198e-014
lhumerus -79.4942 19.4039 16.2569
lradius 41.8305
lwrist -39.2168
lhand -5.98392 45.5813
lfingers 7.12502
lthumb 19.8478 -645.412
rfemur -28.0247 -10.1626 33.2125
rtibia 28.5239
rfoot -19.215 -28.064
rtoes 8.63666
lfemur -2.73877 -2.31824 -11.5195
ltibia 51.3249
lfoot -9.2495 -1.3872
ltoes -35.67
1173
root 7.46115 15.696 -2.35961 235.998 -98.199 129.9
lowerback 4.88905 7.03382 2.27317
upperback -7.35461 9.74984 1.5928
thorax -10.4838 4.5729 -0.877956
lowerneck 5.90764 -12.021 -12.1591
upperneck 1.41862 -16.9969 11.2431
head 1.47373 -8.66927 5.05187
rclavicle -4.51241e-014 -1.00386e-014
rhumerus -22.4216 -5.34386 -89.7822
rradius 105.676
rwrist 4.95983
rhand -2.81908 44.529
rfingers 7.12502
rthumb 22.8876 15.8673
lclavicle -4.51241e-014 -1.00386e-014
lhumerus -78.196 19.5227 15.9736
lradius 43.5165
lwrist -37.9348
lhand -7.4384 45.576
lfingers 7.12502
lthumb 18.4491 -645.279
rfemur -29.1539 -10.7 31.5464
rtibia 29.0926
rfoot -18.9802 -27.4975
rtoes 10.7542
lfemur 1.23251 -2.97974 -14.0784
ltibia 45.5231
lfoot -10.6778 -0.505766
ltoes -36.4756
1174
root 7.77664 15.676 -2.31536 229.332 -97.5477 136.441
lowerback 5.01481 7.12948 1.26987
upperback -7.25632 9.77787 1.44954
thorax -10.5934 4.65879 -0.516321
lowerneck 5.96084 -12.1295 -11.3392
upperneck 1.4158 -17.0536 10.0797
head 1.30106 -8.68448 4.60968
rclavicle -4.25749e-014 -6.52262e-015
rhumerus -21.5448 -6.23816 -90.1916
rradius 104.817
rwrist 5.49386
rhand -2.23188 43.2742
rfingers 7.12502
rthumb 23.451 14.6833
lclavicle -4.25749e-014 -6.52262e-015
lhumerus -76.6938 19.691 16.2973
lradius 45.4553
lwrist -36.7147
lhand -8.95145 45.6503
lfingers 7.12502
lthumb 16.9932 -645.073
rfemur -30.403 -11.8638 30.4877
rtibia 29.2281
rfoot -18.4328 -26.633
rtoes 12.151
lfemur 4.28799 -4.08803 -16.3122
ltibia 39.9177
lfoot -14.0827 1.77187
ltoes -36.7906
1175
root 8.11133 15.6753 -2.2617 223.017 -97.5083 142.786
lowerback 5.16801 7.0972 0.899375
upperback -7.20355 9.70095 1.40909
thorax -10.6819 4.64715 -0.370896
lowerneck 6.05573 -12.0423 -11.8338
upperneck 1.58777 -16.996 10.3217
head 1.39294 -8.6633 4.74822
rclavicle -3.27498e-014 -2.88238e-015
rhumerus -20.4516 -6.97467 -90.4994
rradius 103.613
rwrist 6.23072
rhand -2.08364 42.2888
rfingers 7.12502
rthumb 23.5932 13.7162
lclavicle -3.27498e-014 -2.88238e-015
lhumerus -75.1942 19.8316 17.1999
lradius 47.6557
lwrist -35.6159
lhand -10.3993 45.7241
lfingers 7.12502
lthumb 15.5991 -644.885
rfemur -31.5634 -12.6307 29.7778
rtibia 28.8861
rfoot -17.9466 -26.243
rtoes 12.1545
lfemur 6.25093 -5.38142 -18.0309
ltibia 34.9993
lfoot -18.4886 4.22209
ltoes -35.1499
1176
root 8.457 15.7041 -2.21114 213.629 -97.7155 152.301
lowerback 5.36143 6.91418 0.227901
upperback -7.14555 9.38643 1.32299
thorax -10.8274 4.54148 -0.0842241
lowerneck 6.0162 -11.9647 -11.6978
upperneck 1.64941 -16.863 9.83053
head 1.34922 -8.59069 4.59169
rclavicle 4.17448e-015 -8.54774e-015
rhumerus -19.1928 -7.60757 -90.6854
rradius 102.11
rwrist 6.97804
rhand -1.93366 41.758
rfingers 7.12502
rthumb 23.737 13.204
lclavicle 4.17448e-015 -8.54774e-015
lhumerus -73.7204 19.8676 18.6721
lradius 50.0528
lwrist -34.5981
lhand -11.7057 45.827
lfingers 7.12502
lthumb 14.3406 -644.688
rfemur -32.4758 -13.0405 28.5487
rtibia 28.1377
rfoot -17.799 -26.3695
rtoes 11.1218
lfemur 7.06825 -6.21765 -19.6672
ltibia 31.1697
lfoot -20.3776 6.19003
ltoes -34.279
